<?xml version="1.0" encoding="UTF-8"?>
<svg version="1.1" xmlns="http://www.w3.org/2000/svg" width="720" height="720">
<path d="M0 0 C9.99999802 6.93399618 9.99999802 6.93399618 21.56640625 8.48828125 C22.52544502 5.61116495 22.65069548 3.99893847 22.55859375 1.03125 C22.54183594 0.16564453 22.52507812 -0.69996094 22.5078125 -1.59179688 C22.46382125 -3.40190747 22.4118402 -5.21184292 22.3515625 -7.02148438 C22.26525565 -12.31366355 22.57095602 -15.94009114 25.56640625 -20.51171875 C29.24708226 -23.99867497 32.83309503 -26.27871517 37.94921875 -26.71484375 C44.17282442 -26.23181764 49.31947173 -21.05408191 53.37890625 -16.63671875 C61.42204184 -6.85805738 62.30575786 3.07773636 61.56640625 15.48828125 C59.67474268 27.22772283 55.22152975 37.8032263 45.44140625 45.06640625 C36.5386778 50.76153401 25.51196027 51.00968832 15.28515625 48.76953125 C4.73355861 45.00976657 -5.03337535 39.09953062 -14.55859375 33.30078125 C-16.13640625 32.3581543 -16.13640625 32.3581543 -17.74609375 31.39648438 C-18.73867188 30.79384766 -19.73125 30.19121094 -20.75390625 29.5703125 C-21.65383301 29.02608643 -22.55375977 28.48186035 -23.48095703 27.92114258 C-24.12532715 27.44829834 -24.76969727 26.9754541 -25.43359375 26.48828125 C-25.43359375 25.82828125 -25.43359375 25.16828125 -25.43359375 24.48828125 C-26.02205078 24.36227539 -26.61050781 24.23626953 -27.21679688 24.10644531 C-30.76435609 23.11719202 -33.77833714 21.09116168 -36.93359375 19.23828125 C-49.92566064 11.80206146 -65.00201135 4.42702295 -80.43359375 6.48828125 C-84.69262656 7.92071949 -84.69262656 7.92071949 -87.43359375 11.23828125 C-87.43359375 16.37470666 -86.23965584 19.58625939 -82.80859375 23.42578125 C-72.05127091 31.75331864 -58.1710166 36.38099879 -45.61376953 41.25146484 C-41.91275497 42.69084299 -38.21770414 44.14497181 -34.5234375 45.6015625 C-33.82629135 45.87637955 -33.1291452 46.15119659 -32.41087341 46.43434143 C-30.97633651 46.99990215 -29.54182239 47.56552064 -28.10733032 48.13119507 C-25.22487299 49.26772393 -22.34213479 50.40353909 -19.45933533 51.53919983 C-18.05993678 52.09049153 -16.66057314 52.64187188 -15.26124573 53.19334412 C-11.30723069 54.75137912 -7.35134443 56.30455022 -3.39453125 57.85546875 C6.43594902 61.72432084 16.10073741 65.78717805 25.56640625 70.48828125 C26.24799805 70.8244043 26.92958984 71.16052734 27.63183594 71.50683594 C35.64519804 75.49345623 43.31837614 79.74627114 50.62890625 84.92578125 C51.230979 85.35093018 51.83305176 85.7760791 52.45336914 86.21411133 C53.8668632 87.24989197 55.2235172 88.36246777 56.56640625 89.48828125 C56.56640625 90.14828125 56.56640625 90.80828125 56.56640625 91.48828125 C57.16453125 91.75640625 57.76265625 92.02453125 58.37890625 92.30078125 C60.56488479 93.48745531 61.97973219 94.58427238 63.56640625 96.48828125 C63.56640625 97.14828125 63.56640625 97.80828125 63.56640625 98.48828125 C64.22640625 98.48828125 64.88640625 98.48828125 65.56640625 98.48828125 C80.26048209 115.52057197 92.83894634 136.68575455 91.98046875 159.796875 C90.55792024 172.47902917 83.581459 182.62166948 73.9609375 190.734375 C62.20613227 199.34433837 49.23990332 200.55265894 35.1328125 200.734375 C33.34390641 200.76575349 31.55500685 200.79750587 29.76611328 200.82958984 C28.38434906 200.85264191 28.38434906 200.85264191 26.97467041 200.87615967 C13.36726649 201.11343193 -0.23035821 201.39884768 -13.80859375 202.36328125 C-14.81978271 202.4295874 -15.83097168 202.49589355 -16.87280273 202.56420898 C-35.19345653 204.01102336 -55.80613572 209.48627865 -68.80078125 223.265625 C-75.29634851 232.10767708 -78.58028221 241.13064058 -78.55859375 252.05078125 C-78.56246094 254.00177734 -78.56246094 254.00177734 -78.56640625 255.9921875 C-78.46074728 258.77350455 -78.1608083 260.85348256 -77.43359375 263.48828125 C-76.79856934 263.5133374 -76.16354492 263.53839355 -75.50927734 263.56420898 C-72.60887833 263.68084914 -69.70875026 263.80326518 -66.80859375 263.92578125 C-65.31005859 263.98475586 -65.31005859 263.98475586 -63.78125 264.04492188 C-58.92403271 264.25400739 -54.21227331 264.5178668 -49.43359375 265.48828125 C-49.34207031 264.82183594 -49.25054687 264.15539062 -49.15625 263.46875 C-48.23067997 259.65139901 -46.62293564 256.29249721 -44.87109375 252.80078125 C-44.51684326 252.09397217 -44.16259277 251.38716309 -43.79760742 250.65893555 C-40.69271445 244.65404101 -36.9967885 239.4879555 -32.43359375 234.48828125 C-31.62921875 233.60140625 -30.82484375 232.71453125 -29.99609375 231.80078125 C-12.39116752 215.91340879 6.90201001 211.80301765 30.05859375 212.59765625 C43.30512089 213.39850838 55.70986785 217.4428921 68.28686523 221.4453125 C71.71746712 222.53632205 75.15397901 223.60623656 78.59375 224.66796875 C80.14437134 225.1472583 80.14437134 225.1472583 81.72631836 225.63623047 C92.42614999 228.84627193 103.08924477 230.45202389 113.56640625 225.48828125 C121.10263593 220.44835371 125.34302094 214.50601438 127.14453125 205.64453125 C129.72223654 186.35947689 124.3848578 169.03312381 117.04296875 151.41796875 C112.48910601 140.47173218 108.02568037 129.58788526 104.56640625 118.23828125 C104.30037598 117.37211182 104.0343457 116.50594238 103.76025391 115.61352539 C99.97603728 102.71323109 98.07083398 90.31378822 98.19140625 76.86328125 C98.17980469 75.56132813 98.16820312 74.259375 98.15625 72.91796875 C98.1972496 59.25143606 100.26654056 46.05973645 109.3828125 35.35546875 C115.78410034 29.17402312 122.82586459 27.37748606 131.56640625 27.17578125 C146.73960263 27.65838928 161.22213508 33.20898247 172.56640625 43.48828125 C172.56640625 44.14828125 172.56640625 44.80828125 172.56640625 45.48828125 C173.12714844 45.70742187 173.68789063 45.9265625 174.265625 46.15234375 C193.96449017 57.5903945 202.39466703 90.79173138 208.76220703 110.94482422 C209.54896989 113.43313493 210.35073675 115.91614157 211.15625 118.3984375 C213.19121552 124.71163763 215.19414087 131.02112713 216.91015625 137.4296875 C217.12655762 138.23639893 217.34295898 139.04311035 217.56591797 139.87426758 C217.96793789 141.39368946 218.36096378 142.91553516 218.74267578 144.44018555 C220.02859824 149.33570489 221.9782336 153.14189849 224.56640625 157.48828125 C224.56640625 158.14828125 224.56640625 158.80828125 224.56640625 159.48828125 C227.14936357 161.17713796 228.49498019 161.4911966 231.62890625 161.36328125 C235.20203084 160.29894627 235.7867066 159.7240988 237.56640625 156.48828125 C238.19453477 154.98958863 238.81921239 153.4894474 239.44140625 151.98828125 C241.15937623 148.04475924 242.62865274 145.55091404 246.56640625 143.48828125 C250.44862376 143.40740172 252.14254703 144.17285113 255.25390625 146.48828125 C261.40605474 154.46944686 261.50301749 163.70707977 260.56640625 173.48828125 C258.61590902 181.46442173 253.01244132 188.29518984 246.31640625 192.92578125 C239.41093278 196.84934572 230.3502359 196.51432122 222.70703125 194.875 C207.29645675 189.30461718 197.32971851 175.09672552 190.46435547 160.90625 C184.12529249 147.30108003 178.95043666 133.3113048 174.53125 118.97265625 C170.68493695 106.80564417 170.68493695 106.80564417 162.69140625 97.30078125 C158.63010824 96.24484377 155.7632406 96.00667731 151.56640625 96.48828125 C149.36214138 97.8706742 149.36214138 97.8706742 148.56640625 100.48828125 C146.80634914 114.06586464 154.67419473 129.42476178 160.3203125 141.43359375 C163.44980633 148.17880492 166.41258252 154.98269738 169.29858398 161.8347168 C169.85048006 163.14151453 170.40580185 164.44687098 170.96459961 165.75073242 C186.78377217 202.66213506 193.58453555 245.84222284 179.56640625 284.48828125 C176.21181834 292.60123731 172.57144786 301.24109672 167.56640625 308.48828125 C166.90640625 308.48828125 166.24640625 308.48828125 165.56640625 308.48828125 C165.32148437 309.22046875 165.0765625 309.95265625 164.82421875 310.70703125 C161.46281123 318.13970876 153.72452328 323.86063823 146.56640625 327.48828125 C139.51650508 329.83824831 131.00431416 329.65120823 124.25390625 326.48828125 C112.55981989 319.62062858 105.11536658 308.91916909 97.4296875 298.0703125 C90.9672722 288.9624753 84.4565088 280.41595571 76.56640625 272.48828125 C75.93992187 271.82699219 75.3134375 271.16570312 74.66796875 270.484375 C64.62558297 260.68318189 51.11456778 256.42602066 37.56640625 254.48828125 C36.55320312 254.3078125 35.54 254.12734375 34.49609375 253.94140625 C18.49262063 251.46620241 1.69657535 255.01226299 -11.43359375 264.48828125 C-13.93292554 266.35352331 -16.22885998 268.28354748 -18.43359375 270.48828125 C-18.95050781 271.00519531 -19.46742188 271.52210938 -20 272.0546875 C-21.6271969 273.75316047 -21.6271969 273.75316047 -23.43359375 276.48828125 C-23.11650397 279.91422948 -21.622509 281.83640962 -19.30859375 284.30078125 C-18.46941406 285.23857422 -18.46941406 285.23857422 -17.61328125 286.1953125 C-11.96169929 289.5477742 -1.48338922 284.85188241 4.65234375 283.3046875 C20.72079987 279.35763941 38.35657254 278.02685339 53.56640625 285.48828125 C58.01128051 288.22827223 61.59320794 291.2714216 65.25390625 294.98828125 C65.72634766 295.46136719 66.19878906 295.93445313 66.68554688 296.421875 C73.56640625 303.38958954 73.56640625 303.38958954 73.56640625 306.48828125 C74.22640625 306.48828125 74.88640625 306.48828125 75.56640625 306.48828125 C76.70458984 307.9309082 76.70458984 307.9309082 77.96484375 309.9765625 C78.43809082 310.73614258 78.91133789 311.49572266 79.39892578 312.27832031 C80.16245361 313.52693848 80.16245361 313.52693848 80.94140625 314.80078125 C82.02982444 316.55216008 83.11836965 318.30345997 84.20703125 320.0546875 C84.76455078 320.95719238 85.32207031 321.85969727 85.89648438 322.78955078 C102.59719922 354.54417315 102.59719922 354.54417315 128.56640625 376.48828125 C135.39827183 377.18304724 139.19261031 375.71820932 144.56640625 371.48828125 C145.36111328 370.66263672 145.36111328 370.66263672 146.171875 369.8203125 C147.56640625 368.48828125 147.56640625 368.48828125 149.56640625 368.48828125 C149.83195313 367.91851562 150.0975 367.34875 150.37109375 366.76171875 C151.63253368 364.36250946 153.08817233 362.29815352 154.69140625 360.11328125 C169.93804672 338.52176555 180.40872533 313.24124216 188.92089844 288.36376953 C194.02382631 273.53748664 200.61273138 259.3960206 209.56640625 246.48828125 C210.61634766 244.97427734 210.61634766 244.97427734 211.6875 243.4296875 C216.8746433 236.22881786 222.97194894 227.80488073 231.56640625 224.48828125 C236.90148954 223.84926013 241.86474079 223.73562153 246.81640625 225.92578125 C263.5350053 241.50447581 270.28629061 262.72412634 276.00390625 284.30078125 C276.17734558 284.95398346 276.35078491 285.60718567 276.52947998 286.28018188 C285.29836895 319.56436254 275.32106096 343.12926014 259.08422852 372.09155273 C251.46609272 385.4799137 251.46609272 385.4799137 250.56640625 400.48828125 C251.91390361 404.73010724 253.78521906 407.05939417 257.75390625 409.23828125 C259.77644735 409.96186276 261.81416073 410.55942696 263.87890625 411.15234375 C267.59370504 412.26433944 270.14374076 413.12746925 273.12890625 415.67578125 C274.99705982 419.33086432 275.41342458 422.4592211 274.56640625 426.48828125 C271.01573803 433.70127393 263.9604392 437.94839971 256.50390625 440.48828125 C248.04597347 442.61266062 240.12081616 440.63625479 232.56640625 436.48828125 C223.50433348 430.3293276 217.68426299 421.55099903 214.8984375 410.9453125 C212.31173955 391.80374771 220.26877862 375.8854614 228.6484375 359.3046875 C237.80169162 341.15483642 247.2358008 320.16416113 241.06640625 299.55078125 C240.58805743 298.18881585 240.09706789 296.83072886 239.56640625 295.48828125 C236.75875897 294.71402016 236.75875897 294.71402016 233.56640625 294.48828125 C231.31884872 295.83991795 231.31884872 295.83991795 229.56640625 297.48828125 C228.90640625 297.48828125 228.24640625 297.48828125 227.56640625 297.48828125 C227.28152344 298.05804688 226.99664063 298.6278125 226.703125 299.21484375 C225.98488375 300.65132626 225.25926236 302.08416341 224.5234375 303.51171875 C221.42064644 309.88673656 219.2304479 316.42267408 217.12890625 323.17578125 C204.13499259 364.80976643 184.6339299 405.12301697 158.25390625 439.92578125 C157.21542139 441.29893159 156.17763206 442.67260828 155.140625 444.046875 C154.46906372 444.93330688 154.46906372 444.93330688 153.78393555 445.83764648 C152.66496502 447.35466268 151.61204675 448.9198205 150.56640625 450.48828125 C149.90640625 450.48828125 149.24640625 450.48828125 148.56640625 450.48828125 C148.34210937 451.03355469 148.1178125 451.57882812 147.88671875 452.140625 C141.30618698 463.84151137 126.5364235 473.9612442 114.56640625 479.48828125 C106.88538548 481.23742459 96.90621609 481.46197136 89.62890625 478.15234375 C87.47859604 476.70229903 85.524261 475.1850887 83.56640625 473.48828125 C82.57640625 472.82828125 81.58640625 472.16828125 80.56640625 471.48828125 C80.56640625 470.82828125 80.56640625 470.16828125 80.56640625 469.48828125 C79.90640625 469.48828125 79.24640625 469.48828125 78.56640625 469.48828125 C63.09814641 451.98472406 67.21612129 419.8602713 67.03466797 398.35107422 C67.00065937 394.6805408 66.9556591 391.0102499 66.91015625 387.33984375 C66.9022406 385.69249741 66.9022406 385.69249741 66.89416504 384.01187134 C66.64537283 364.37353708 63.03846592 342.54528912 49.56640625 327.48828125 C49.56640625 326.82828125 49.56640625 326.16828125 49.56640625 325.48828125 C48.98375 325.20855469 48.40109375 324.92882812 47.80078125 324.640625 C45.69872803 323.55652412 43.78565641 322.35683353 41.81640625 321.05078125 C34.66561765 316.52817428 27.48893607 314.35226975 19.05078125 314.390625 C17.17519531 314.39545898 17.17519531 314.39545898 15.26171875 314.40039062 C13.95976562 314.40876953 12.6578125 314.41714844 11.31640625 314.42578125 C9.99898438 314.43029297 8.6815625 314.43480469 7.32421875 314.43945312 C4.07159521 314.45123799 0.81899501 314.46917335 -2.43359375 314.48828125 C-2.10359375 320.09828125 -1.77359375 325.70828125 -1.43359375 331.48828125 C1.84578125 332.72578125 1.84578125 332.72578125 5.19140625 333.98828125 C23.81351909 341.31276006 36.9004195 351.47770576 45.1796875 370.12109375 C55.25764615 397.17402111 50.14173119 426.54534148 41.51171875 453.38671875 C37.89665011 465.24772909 33.80800918 479.83517961 38.875 491.71875 C39.56640625 493.48828125 39.56640625 493.48828125 39.56640625 496.48828125 C40.12328125 496.73578125 40.68015625 496.98328125 41.25390625 497.23828125 C43.56640625 498.48828125 43.56640625 498.48828125 45.62890625 500.42578125 C55.81099902 507.57491022 69.89465089 506.53417165 81.67993164 504.66308594 C91.96027443 502.81140143 101.47992557 499.21075511 111.0859375 495.16796875 C117.99769784 492.27724494 124.99194603 489.62468967 132.00390625 486.98828125 C136.85888292 485.15708561 141.71307235 483.32382639 146.56640625 481.48828125 C147.7474292 481.04299072 148.92845215 480.5977002 150.14526367 480.13891602 C155.54217336 478.08812876 160.83095239 476.00149614 166.00390625 473.42578125 C179.15076514 467.31793684 193.14298896 463.52127222 207.44140625 467.98828125 C216.01605149 471.63760943 221.9633771 477.5410827 225.69140625 486.05859375 C228.95716511 495.12690629 226.97436884 503.10689783 223.0859375 511.796875 C219.34511807 519.06450818 214.95380717 525.36106119 209.56640625 531.48828125 C208.73109375 532.44476562 207.89578125 533.40125 207.03515625 534.38671875 C185.76113466 558.36897799 158.21182986 575.50833954 129.56640625 589.48828125 C128.13671833 590.20574369 126.70817078 590.92548731 125.28125 591.6484375 C124.0222531 592.28278571 122.76314009 592.91690352 121.50390625 593.55078125 C120.83198242 593.88948242 120.16005859 594.22818359 119.46777344 594.57714844 C114.65021897 596.98937499 109.77647993 599.21452388 104.80078125 601.28515625 C101.53358593 603.04441527 99.28687425 605.05616731 97.609375 608.390625 C97.54304345 611.62881049 99.08584578 613.4097002 100.87890625 616.05078125 C101.51441406 617.00082031 102.14992188 617.95085938 102.8046875 618.9296875 C103.38605469 619.77402344 103.96742188 620.61835937 104.56640625 621.48828125 C107.05799665 625.22566685 107.0243391 627.06159708 106.56640625 631.48828125 C105.25390625 634.42578125 105.25390625 634.42578125 102.56640625 636.48828125 C94.02760488 638.07366131 87.31020394 635.58136556 80.25390625 630.98046875 C73.65915479 626.19036211 68.34812855 620.57139485 65.06640625 613.05078125 C63.95805177 605.15375557 64.82429605 599.17523677 69.6640625 592.70703125 C77.13223828 583.99671535 85.29700005 579.25736033 95.49951172 574.48095703 C98.82929578 572.8817482 102.07006965 571.12422622 105.31640625 569.36328125 C109.58548134 567.05672768 113.87828002 564.83710898 118.25390625 562.73828125 C123.93718929 559.92370298 129.37302386 556.73554211 134.81640625 553.48828125 C135.65647217 552.98973633 136.49653809 552.49119141 137.36206055 551.97753906 C142.12912893 549.10325645 146.60774934 546.0587278 150.96386719 542.58984375 C152.56640625 541.48828125 152.56640625 541.48828125 154.56640625 541.48828125 C154.56640625 540.82828125 154.56640625 540.16828125 154.56640625 539.48828125 C156.140625 538.0078125 156.140625 538.0078125 158.25390625 536.30078125 C164.71070268 530.8746749 164.71070268 530.8746749 167.9375 523.33984375 C168.0654028 520.91551229 168.0654028 520.91551229 167.56640625 517.48828125 C164.83724791 514.75912291 163.26437945 515.12480237 159.44140625 515.05078125 C142.6685495 515.32434466 126.16328528 523.84221264 111.25390625 530.92578125 C78.66541312 546.32021247 43.93850512 553.78453596 8.296875 558.09375 C5.48098563 558.41824972 5.48098563 558.41824972 2.56640625 559.48828125 C-0.0361229 559.62100731 -2.61099127 559.70048059 -5.21484375 559.7265625 C-5.98356812 559.73463425 -6.75229248 559.74270599 -7.54431152 559.75102234 C-9.175026 559.76485227 -10.8057693 559.77557931 -12.43652344 559.78344727 C-14.08700171 559.79490444 -15.73744479 559.81525569 -17.38769531 559.8449707 C-30.50294006 560.08096073 -41.69712239 558.83887009 -52.43359375 550.48828125 C-56.58561487 546.1177327 -58.50906984 542.18382212 -58.74609375 536.17578125 C-58.29954253 521.11708193 -45.92452178 509.08532887 -36.43359375 498.48828125 C-35.95841309 497.95525391 -35.48323242 497.42222656 -34.99365234 496.87304688 C-30.09083459 491.39069577 -25.05848284 486.08074884 -19.80859375 480.92578125 C-14.58689363 475.74852113 -9.9719671 470.26582785 -5.43359375 464.48828125 C-4.62019531 463.5034375 -3.80679687 462.51859375 -2.96875 461.50390625 C9.2854152 446.4824426 18.71046887 428.73390934 17.9453125 408.83984375 C16.14143386 392.88388629 10.7319357 381.33019329 -1.65234375 370.6640625 C-8.15782489 365.24069853 -8.15782489 365.24069853 -16.0703125 363.76953125 C-18.53283951 364.34249066 -18.53283951 364.34249066 -20.37109375 366.17578125 C-21.73756346 368.50357382 -21.73756346 368.50357382 -20.71484375 371.203125 C-19.34238888 374.72213276 -17.73277824 378.00942604 -15.99609375 381.36328125 C-7.39721498 398.37098391 -4.33335588 417.74673732 -9.43359375 436.48828125 C-14.2585575 449.31374399 -21.42990998 460.23289161 -31.18359375 469.80078125 C-32.00851318 470.61546875 -32.83343262 471.43015625 -33.68334961 472.26953125 C-45.24501705 483.44416516 -58.14874428 492.29795247 -71.91918945 500.50878906 C-76.99602875 503.55072715 -81.88938814 506.76721409 -86.68359375 510.23828125 C-87.27946289 510.66197998 -87.87533203 511.08567871 -88.48925781 511.5222168 C-93.91315713 515.52818927 -98.68435447 520.2477444 -101.43359375 526.48828125 C-102.12033996 531.32744644 -102.29786502 535.86454318 -99.43359375 539.98828125 C-98.77359375 540.81328125 -98.11359375 541.63828125 -97.43359375 542.48828125 C-97.43359375 543.14828125 -97.43359375 543.80828125 -97.43359375 544.48828125 C-96.77359375 544.48828125 -96.11359375 544.48828125 -95.43359375 544.48828125 C-95.43359375 545.14828125 -95.43359375 545.80828125 -95.43359375 546.48828125 C-94.71171875 546.73578125 -93.98984375 546.98328125 -93.24609375 547.23828125 C-90.15846413 548.61056108 -88.05519086 550.36603597 -85.43359375 552.48828125 C-72.81951949 561.36250435 -58.63552143 567.51904047 -44.5625 573.671875 C-41.20189987 575.14132734 -37.87754089 576.67670468 -34.55859375 578.23828125 C-30.94859796 579.894697 -27.34225037 581.21875538 -23.55859375 582.42578125 C-17.61746914 584.34545498 -12.08217051 586.81714227 -6.46240234 589.52539062 C-4.09587762 590.64856433 -1.712691 591.73207468 0.671875 592.81640625 C30.05824106 606.29247229 30.05824106 606.29247229 36.56640625 621.48828125 C37.49317518 630.44704758 34.3625572 637.45359467 29.00390625 644.55078125 C15.16305317 660.87786164 -3.36864192 668.66249994 -24.43359375 670.48828125 C-57.29435729 672.13905744 -85.7369692 661.37366623 -113.88989258 645.10498047 C-121.45966045 640.74887792 -127.92022477 637.95494463 -136.74609375 637.98828125 C-137.44798828 637.95992187 -138.14988281 637.9315625 -138.87304688 637.90234375 C-141.17876877 637.83534047 -141.17876877 637.83534047 -144.43359375 638.48828125 C-146.88823895 641.1603655 -147.39659684 642.78344267 -147.5859375 646.390625 C-147.51503906 647.39222656 -147.44414062 648.39382813 -147.37109375 649.42578125 C-147.23538497 654.68611195 -147.74179373 657.48883123 -151.43359375 661.48828125 C-152.29984375 662.44734375 -152.29984375 662.44734375 -153.18359375 663.42578125 C-155.95510639 664.73455111 -158.19774338 664.89848943 -161.21484375 664.375 C-168.7339066 661.37002242 -173.29876118 653.77901398 -176.55859375 646.75 C-179.59804649 638.89355744 -179.65259337 629.53059247 -176.6015625 621.65234375 C-172.21094072 613.51721175 -165.95128318 608.50178173 -157.24609375 605.8125 C-136.66016557 600.55879958 -117.70515729 611.85994807 -99.5390625 620.15625 C-98.65138184 620.56149902 -97.76370117 620.96674805 -96.84912109 621.38427734 C-94.87232901 622.28775964 -92.89690512 623.19423498 -90.921875 624.1015625 C-82.99437918 627.59485193 -74.84650914 629.55558447 -66.43359375 631.48828125 C-65.78261719 631.68421875 -65.13164062 631.88015625 -64.4609375 632.08203125 C-61.16205507 632.74307898 -57.84712344 632.71384348 -54.49609375 632.73828125 C-53.79291016 632.75890625 -53.08972656 632.77953125 -52.36523438 632.80078125 C-47.84493224 632.83467292 -45.06967156 632.19221387 -41.43359375 629.48828125 C-41.43359375 625.82596874 -41.56109757 623.57073641 -43.89453125 620.67578125 C-54.1413802 611.30723364 -68.07866423 606.26013817 -80.55273438 600.51171875 C-91.11566104 595.6410909 -101.45221883 590.44287669 -111.70361328 584.94677734 C-114.68966169 583.35147658 -117.68449994 581.77338285 -120.6796875 580.1953125 C-140.81798132 569.53544629 -160.04584526 557.95450644 -178.43359375 544.48828125 C-179.17786621 543.95702637 -179.92213867 543.42577148 -180.68896484 542.87841797 C-181.42324707 542.34619629 -182.1575293 541.81397461 -182.9140625 541.265625 C-183.92376099 540.54040649 -183.92376099 540.54040649 -184.95385742 539.80053711 C-185.44217041 539.36749268 -185.9304834 538.93444824 -186.43359375 538.48828125 C-186.43359375 537.82828125 -186.43359375 537.16828125 -186.43359375 536.48828125 C-186.99175781 536.26140625 -187.54992187 536.03453125 -188.125 535.80078125 C-197.29145653 530.5893948 -203.19147554 520.21463587 -206.43359375 510.48828125 C-207.29025879 498.74208562 -205.70880331 489.39321533 -198.56640625 479.875 C-184.89858496 464.58005713 -162.84135075 461.1492095 -143.37109375 459.43359375 C-142.43040543 459.34947739 -141.4897171 459.26536102 -140.52052307 459.17869568 C-128.08521086 458.12946202 -115.61186299 457.81268802 -103.14086914 457.45922852 C-87.28773168 456.99660001 -73.57088931 456.37704838 -59.43359375 448.48828125 C-58.70269531 448.16988281 -57.97179687 447.85148437 -57.21875 447.5234375 C-55.08641612 446.55017685 -55.08641612 446.55017685 -54.43359375 443.48828125 C-53.77359375 443.48828125 -53.11359375 443.48828125 -52.43359375 443.48828125 C-52.14484375 442.905625 -51.85609375 442.32296875 -51.55859375 441.72265625 C-50.8754781 440.36591266 -50.17227139 439.01871764 -49.43359375 437.69140625 C-40.77661283 420.78324039 -44.89398887 400.92880976 -49.43359375 383.48828125 C-52.84617289 382.87695755 -55.28599925 382.96979317 -58.43359375 384.48828125 C-61.0784122 388.64138974 -62.81713531 393.04328869 -64.64257812 397.60253906 C-68.09751136 405.83892928 -73.78147245 412.6805643 -79.43359375 419.48828125 C-80.10390625 420.34292969 -80.77421875 421.19757813 -81.46484375 422.078125 C-91.45577143 434.3090821 -108.69954534 444.81266374 -124.43359375 446.48828125 C-139.46850854 447.26082628 -153.5573682 445.32030308 -168.19140625 441.953125 C-195.72482473 435.4425743 -195.72482473 435.4425743 -222.43359375 442.48828125 C-228.28127451 446.30378926 -232.32861162 450.32684826 -234.07421875 457.203125 C-236.41645105 472.09666735 -229.52386732 486.061355 -224.5078125 499.7421875 C-195.71788861 578.31072765 -195.71788861 578.31072765 -207.43359375 606.48828125 C-208.09359375 607.47828125 -208.75359375 608.46828125 -209.43359375 609.48828125 C-210.09359375 609.48828125 -210.75359375 609.48828125 -211.43359375 609.48828125 C-211.43359375 610.14828125 -211.43359375 610.80828125 -211.43359375 611.48828125 C-224.02788746 618.36080193 -235.83855859 617.23446872 -249.43359375 613.48828125 C-269.22288554 606.99030484 -286.61265244 591.96545243 -296.30859375 573.48828125 C-297.05074514 571.8363959 -297.7579505 570.16846579 -298.43359375 568.48828125 C-298.82675781 567.52535156 -299.21992188 566.56242188 -299.625 565.5703125 C-302.76703242 557.32617101 -304.95185972 548.90765902 -307.13696289 540.37133789 C-310.56260589 527.01122149 -314.23603324 513.88311257 -319.49609375 501.11328125 C-319.81239746 500.33436523 -320.12870117 499.55544922 -320.45458984 498.75292969 C-322.99772191 492.80547152 -325.89794304 488.25221218 -331.30859375 484.48828125 C-334.46366575 483.27565217 -334.46366575 483.27565217 -338.05859375 483.67578125 C-343.09501044 486.38052355 -343.68674451 490.28053822 -345.43359375 495.48828125 C-347.28167816 499.03660332 -348.07236779 500.24746394 -351.43359375 502.48828125 C-355.47335905 502.40046027 -357.09777963 501.77830253 -360.18359375 499.11328125 C-366.93904784 491.23191815 -366.12905595 481.39425543 -365.43359375 471.48828125 C-364.19324653 464.78845295 -360.56290745 459.68962713 -355.0625 455.8203125 C-347.69046445 451.20868253 -341.03129137 449.27769453 -332.3046875 450.87890625 C-315.98075463 455.4344224 -306.523078 470.38476722 -298.30859375 484.09765625 C-295.00361456 490.07416029 -292.22153498 496.25843727 -289.43359375 502.48828125 C-289.00433594 503.37644531 -288.57507813 504.26460937 -288.1328125 505.1796875 C-284.86745007 511.97632135 -282.42015774 519.00739173 -280.01953125 526.14526367 C-274.30845701 543.57825196 -274.30845701 543.57825196 -262.3125 556.7265625 C-258.95402293 558.08810726 -256.00965409 557.80197075 -252.43359375 557.48828125 C-246.57182565 539.90297696 -256.90972423 518.69648867 -264.58496094 503.15722656 C-266.03875319 500.35718978 -267.53897017 497.58486389 -269.05273438 494.81689453 C-287.90855453 460.17957272 -305.49666566 414.19868483 -294.3984375 374.56640625 C-290.11837625 360.53889654 -283.71234203 345.56994518 -270.43359375 337.86328125 C-268.94859375 337.18265625 -268.94859375 337.18265625 -267.43359375 336.48828125 C-266.77359375 336.15828125 -266.11359375 335.82828125 -265.43359375 335.48828125 C-254.17051707 334.30552379 -246.68642506 335.47878581 -237.43359375 342.48828125 C-228.81838853 349.93705179 -220.80433764 358.01347128 -212.80859375 366.11328125 C-210.69429659 368.25418928 -208.576656 370.39171187 -206.45703125 372.52734375 C-205.53841309 373.45756348 -204.61979492 374.3877832 -203.67333984 375.34619141 C-201.62626521 377.51486701 -201.62626521 377.51486701 -199.43359375 378.48828125 C-199.43359375 379.14828125 -199.43359375 379.80828125 -199.43359375 380.48828125 C-198.83546875 380.77703125 -198.23734375 381.06578125 -197.62109375 381.36328125 C-195.43359375 382.48828125 -195.43359375 382.48828125 -192.43359375 384.48828125 C-192.43359375 385.14828125 -192.43359375 385.80828125 -192.43359375 386.48828125 C-191.8715625 386.75382812 -191.30953125 387.019375 -190.73046875 387.29296875 C-188.25398862 388.58174923 -186.00531937 390.06306073 -183.68359375 391.61328125 C-164.06144833 404.17879951 -141.54273591 413.39038601 -117.890625 408.80078125 C-112.10663615 407.04139301 -107.55757713 404.58129662 -102.95703125 400.66015625 C-101.43359375 399.48828125 -101.43359375 399.48828125 -99.43359375 399.48828125 C-99.10359375 398.49828125 -98.77359375 397.50828125 -98.43359375 396.48828125 C-97.77359375 396.48828125 -97.11359375 396.48828125 -96.43359375 396.48828125 C-96.16933594 395.95460938 -95.90507812 395.4209375 -95.6328125 394.87109375 C-94.7348457 393.08686005 -93.81754668 391.31233317 -92.890625 389.54296875 C-92.34792969 388.49367188 -91.80523437 387.444375 -91.24609375 386.36328125 C-90.42044922 384.78160156 -90.42044922 384.78160156 -89.578125 383.16796875 C-89.01158203 381.84152344 -89.01158203 381.84152344 -88.43359375 380.48828125 C-89.81926906 377.71693063 -92.00254543 376.92732034 -94.64453125 375.48828125 C-96.2888098 374.56920852 -97.86625599 373.53317309 -99.43359375 372.48828125 C-103.30687433 372.80948013 -105.80506894 374.16803201 -108.99609375 376.30078125 C-124.66155917 386.02739858 -144.23105174 386.57205678 -161.82421875 382.5078125 C-195.26209061 373.06269935 -216.48511681 342.63763134 -234.68359375 315.05078125 C-236.8016626 311.844025 -238.92413911 308.77453059 -241.43359375 305.86328125 C-243.43359375 303.48828125 -243.43359375 303.48828125 -243.43359375 301.48828125 C-243.99046875 301.24078125 -244.54734375 300.99328125 -245.12109375 300.73828125 C-247.83291725 299.27243071 -250.04885715 297.43372426 -252.43359375 295.48828125 C-255.91763547 293.74626039 -259.62407433 294.04268672 -263.43359375 294.48828125 C-266.185412 295.72185495 -268.07936793 296.73911347 -270.43359375 298.48828125 C-270.9853125 298.87757813 -271.53703125 299.266875 -272.10546875 299.66796875 C-280.61240766 306.26279754 -286.62441966 315.99324523 -291.43359375 325.48828125 C-291.91828125 326.38546875 -292.40296875 327.28265625 -292.90234375 328.20703125 C-297.09494734 336.19670978 -300.50619569 344.43139556 -303.87109375 352.80078125 C-312.09488457 373.21750833 -320.75268987 393.7675649 -335.43359375 410.48828125 C-336.16449219 411.36226563 -336.89539063 412.23625 -337.6484375 413.13671875 C-343.1538983 419.55505083 -348.31224169 425.0563101 -356.93359375 426.48828125 C-364.21357525 426.92683435 -369.6656742 423.64654883 -375.43359375 419.48828125 C-376.42359375 418.82828125 -377.41359375 418.16828125 -378.43359375 417.48828125 C-378.43359375 416.82828125 -378.43359375 416.16828125 -378.43359375 415.48828125 C-379.07296875 415.22015625 -379.71234375 414.95203125 -380.37109375 414.67578125 C-382.43359375 413.48828125 -382.43359375 413.48828125 -383.43359375 410.48828125 C-384.09359375 410.48828125 -384.75359375 410.48828125 -385.43359375 410.48828125 C-401.12281679 391.88086272 -404.75679903 369.14121926 -403.43359375 345.48828125 C-401.02167861 317.55770834 -385.94249415 291.85530743 -371.89453125 268.203125 C-368.85845464 262.56121793 -368.85156275 256.8349595 -369.93359375 250.61328125 C-371.89933746 247.82847766 -373.89125213 247.52174957 -377.14453125 246.87109375 C-378.69084316 246.61249551 -380.23773988 246.35737374 -381.78515625 246.10546875 C-385.71781468 245.38207004 -388.15606352 244.68085324 -391.49609375 242.36328125 C-393.51799519 239.36304041 -394.29128381 237.25822681 -394.04296875 233.609375 C-392.59975098 228.58586698 -388.71643837 225.05022757 -384.50390625 222.16796875 C-376.43523635 217.79338868 -366.23742988 215.83264084 -357.234375 218.0234375 C-348.47669469 221.07611464 -342.29267874 226.39848774 -338.18359375 234.67578125 C-333.94206275 244.98649481 -334.94897199 255.95413785 -338.84765625 266.20703125 C-341.18307908 271.7446887 -343.77402164 277.15895661 -346.42578125 282.55078125 C-355.07124042 300.23314444 -361.4639122 318.0970472 -361.68359375 337.92578125 C-361.69318115 338.69623779 -361.70276855 339.46669434 -361.71264648 340.26049805 C-361.68733353 344.45278376 -361.35155463 347.65997045 -359.43359375 351.48828125 C-356.99642117 351.21793491 -356.99642117 351.21793491 -354.43359375 350.48828125 C-353.77359375 349.49828125 -353.11359375 348.50828125 -352.43359375 347.48828125 C-351.77359375 347.48828125 -351.11359375 347.48828125 -350.43359375 347.48828125 C-350.17707031 346.64394531 -349.92054688 345.79960937 -349.65625 344.9296875 C-348.3490931 341.25043758 -346.67363709 337.87636421 -344.87109375 334.42578125 C-341.59924916 328.03256517 -338.66574572 321.54066748 -335.87109375 314.92578125 C-330.45254264 302.12702635 -324.54598453 289.62694586 -318.37109375 277.17578125 C-317.87633545 276.17313232 -317.38157715 275.1704834 -316.87182617 274.13745117 C-314.06917469 268.52611101 -311.0977023 263.09556832 -307.79980469 257.75927734 C-306.35517579 255.3579303 -305.04304004 252.90956758 -303.74609375 250.42578125 C-299.87098249 243.25227242 -295.36796386 236.49027666 -290.88134766 229.68994141 C-289.43327372 227.48779457 -288.00067075 225.27618482 -286.5703125 223.0625 C-285.6710464 221.68328492 -284.7713261 220.30436584 -283.87109375 218.92578125 C-283.45375977 218.27641602 -283.03642578 217.62705078 -282.60644531 216.95800781 C-281.60123208 215.43225263 -280.52405516 213.95432232 -279.43359375 212.48828125 C-278.77359375 212.48828125 -278.11359375 212.48828125 -277.43359375 212.48828125 C-277.16546875 211.9159375 -276.89734375 211.34359375 -276.62109375 210.75390625 C-275.39226739 208.40943491 -274.00837199 206.36423187 -272.43359375 204.23828125 C-271.91796875 203.531875 -271.40234375 202.82546875 -270.87109375 202.09765625 C-270.39671875 201.5665625 -269.92234375 201.03546875 -269.43359375 200.48828125 C-268.77359375 200.48828125 -268.11359375 200.48828125 -267.43359375 200.48828125 C-267.43359375 199.82828125 -267.43359375 199.16828125 -267.43359375 198.48828125 C-259.235185 189.58513823 -246.74018688 181.21999316 -234.53125 180.14453125 C-224.0990669 179.76270289 -217.30099808 180.83559895 -209.24609375 187.67578125 C-205.15993587 191.54885728 -201.82423169 195.37321818 -199.43359375 200.48828125 C-198.67054932 202.02005005 -198.67054932 202.02005005 -197.89208984 203.58276367 C-195.61518503 209.7484375 -196.02666647 216.316736 -196.0534687 222.7977066 C-196.06268508 225.2404617 -196.0522312 227.6824659 -196.03684998 230.12518311 C-195.99707704 237.0661921 -195.99551948 244.00713802 -195.99780273 250.94824219 C-196.56172145 285.36897081 -196.56172145 285.36897081 -185.43359375 317.48828125 C-185.11261719 318.06271973 -184.79164063 318.6371582 -184.4609375 319.22900391 C-176.43205536 333.37494786 -165.81594511 343.75021291 -149.9140625 348.55078125 C-139.08897132 351.17788897 -130.74668122 350.4491047 -120.43359375 346.48828125 C-120.74552839 344.75901251 -121.05816737 343.02987081 -121.37109375 341.30078125 C-121.54511719 340.33785156 -121.71914063 339.37492187 -121.8984375 338.3828125 C-122.22610834 336.61051987 -122.57628419 334.8419775 -122.96484375 333.08203125 C-123.56065864 329.78518885 -123.77743794 326.5180915 -123.99609375 323.17578125 C-124.12177734 321.29439453 -124.12177734 321.29439453 -124.25 319.375 C-124.31058594 318.42238281 -124.37117188 317.46976562 -124.43359375 316.48828125 C-125.29017578 316.34132813 -125.29017578 316.34132813 -126.1640625 316.19140625 C-145.35613237 312.65201022 -162.29629834 305.37421068 -173.87109375 289.05078125 C-184.27126718 271.9319117 -185.96137954 252.98030355 -181.55859375 233.67578125 C-179.8578 227.14734985 -177.92511027 220.67462574 -175.94702148 214.22558594 C-171.70684229 200.2532964 -168.49222842 185.45302883 -174.43359375 171.48828125 C-178.44796075 164.39623288 -183.635668 159.07071121 -191.43359375 156.48828125 C-214.08014679 151.63544846 -239.6342488 166.23843625 -259.16015625 176.31640625 C-279.23682291 186.62684817 -299.34145932 196.60177525 -322.30859375 196.73828125 C-323.59830078 196.76921875 -323.59830078 196.76921875 -324.9140625 196.80078125 C-333.53766689 196.85312483 -340.133821 194.66136895 -346.5390625 188.7109375 C-351.57817642 182.79906983 -355.13905785 175.29348251 -355.43359375 167.48828125 C-355.48966797 166.49828125 -355.48966797 166.49828125 -355.546875 165.48828125 C-356.25620819 144.58161894 -346.99394177 124.08586466 -333.43359375 108.48828125 C-332.77359375 108.48828125 -332.11359375 108.48828125 -331.43359375 108.48828125 C-331.16546875 107.84890625 -330.89734375 107.20953125 -330.62109375 106.55078125 C-329.43359375 104.48828125 -329.43359375 104.48828125 -326.43359375 103.48828125 C-326.10359375 102.82828125 -325.77359375 102.16828125 -325.43359375 101.48828125 C-324.43359375 99.48828125 -324.43359375 99.48828125 -321.43359375 98.48828125 C-321.43359375 97.82828125 -321.43359375 97.16828125 -321.43359375 96.48828125 C-317.96079764 93.56629613 -314.16663773 91.06507267 -310.43359375 88.48828125 C-309.65113281 87.92882812 -308.86867188 87.369375 -308.0625 86.79296875 C-285.52697119 71.47324966 -257.15706625 62.06277208 -231.43359375 53.48828125 C-230.26405959 51.06445048 -230.26405959 51.06445048 -229.43359375 48.48828125 C-229.10359375 47.82828125 -228.77359375 47.16828125 -228.43359375 46.48828125 C-228.07204621 40.97468121 -228.17097179 38.11032903 -231.43359375 33.48828125 C-231.43359375 32.82828125 -231.43359375 32.16828125 -231.43359375 31.48828125 C-232.09359375 31.48828125 -232.75359375 31.48828125 -233.43359375 31.48828125 C-236.19750692 28.08654196 -237.0298605 24.99493483 -236.84765625 20.60546875 C-235.54085007 13.92349754 -230.71012324 9.35773621 -225.43359375 5.48828125 C-222.59102078 4.06699477 -220.59404748 4.22173696 -217.43359375 4.48828125 C-214.44140625 5.94921875 -214.44140625 5.94921875 -211.55859375 7.86328125 C-210.59179688 8.48976562 -209.625 9.11625 -208.62890625 9.76171875 C-207.90445313 10.33148438 -207.18 10.90125 -206.43359375 11.48828125 C-206.43359375 12.14828125 -206.43359375 12.80828125 -206.43359375 13.48828125 C-205.77359375 13.48828125 -205.11359375 13.48828125 -204.43359375 13.48828125 C-195.73278969 24.79767552 -190.99881977 35.96119469 -192.43359375 50.48828125 C-194.63917802 61.97569931 -202.68372383 71.46386039 -211.86328125 78.296875 C-225.57766777 87.43301676 -241.11138818 92.75694369 -256.53027344 98.23291016 C-271.89724949 103.73620374 -287.2286507 112.78775829 -295.43359375 127.48828125 C-296.82633987 131.08620872 -296.83504074 134.67453482 -296.43359375 138.48828125 C-293.85673119 142.39513739 -292.19752592 143.32547603 -287.62109375 144.30078125 C-279.98245338 143.85667425 -272.9911494 139.11678471 -266.43359375 135.48828125 C-265.29792969 134.87597656 -264.16226563 134.26367188 -262.9921875 133.6328125 C-251.19293754 127.09934351 -239.97148217 119.5549843 -228.78125 112.0390625 C-213.99599227 102.2466861 -198.3058769 94.01077138 -181.43359375 88.48828125 C-180.31339844 88.111875 -179.19320312 87.73546875 -178.0390625 87.34765625 C-152.62577557 79.4189474 -121.69523164 76.94819041 -97.43359375 89.48828125 C-86.48095075 95.77352344 -71.80100874 105.67710681 -67.83984375 118.39453125 C-65.92242116 128.27663227 -68.01846105 136.95341101 -73.24609375 145.42578125 C-78.92893235 153.44861221 -85.79934191 160.31078048 -93.43359375 166.48828125 C-94.09359375 166.48828125 -94.75359375 166.48828125 -95.43359375 166.48828125 C-95.43359375 167.14828125 -95.43359375 167.80828125 -95.43359375 168.48828125 C-96.90234375 169.93359375 -96.90234375 169.93359375 -98.93359375 171.61328125 C-106.62734211 177.75739692 -106.62734211 177.75739692 -112.43359375 185.48828125 C-113.09359375 185.48828125 -113.75359375 185.48828125 -114.43359375 185.48828125 C-114.78744141 186.30039062 -114.78744141 186.30039062 -115.1484375 187.12890625 C-116.78282617 190.12942526 -118.84371624 192.58401916 -120.99609375 195.23828125 C-136.15122753 214.54698288 -145.72726666 237.65091265 -143.43359375 262.48828125 C-141.38653265 273.98614541 -135.90264738 282.69526452 -126.43359375 289.48828125 C-122.85026799 291.27994413 -119.38995009 291.93623153 -115.43359375 292.48828125 C-115.18996094 291.74707031 -114.94632812 291.00585938 -114.6953125 290.2421875 C-112.92483307 286.37782838 -110.15867272 284.23287824 -107.015625 281.453125 C-105.20690816 279.65705227 -105.20690816 279.65705227 -105.546875 277.55859375 C-106.95851596 274.26269195 -108.50397915 271.04715765 -110.08203125 267.828125 C-113.5990355 259.1372619 -114.90158278 251.14878193 -114.74609375 241.80078125 C-114.75092773 240.3302832 -114.75092773 240.3302832 -114.75585938 238.83007812 C-114.63354958 222.22930265 -107.12319242 207.92739943 -95.9140625 195.9296875 C-85.77865784 185.95389551 -73.80715931 178.02517704 -61.99023438 170.20166016 C-56.34923795 166.45680906 -50.82828171 162.58246408 -45.43359375 158.48828125 C-44.48484375 157.76898438 -43.53609375 157.0496875 -42.55859375 156.30859375 C-33.67321027 149.33067031 -25.86037063 141.78637774 -24.0859375 130.22265625 C-23.48425506 120.65744819 -27.09906701 111.83983016 -33.21240234 104.60693359 C-38.27029587 99.01958292 -43.69111003 94.87091244 -50.43359375 91.48828125 C-51.05234375 91.13636719 -51.67109375 90.78445312 -52.30859375 90.421875 C-62.02946718 85.07958465 -73.47428774 82.37492765 -84.1171875 79.48046875 C-87.28372496 78.53311832 -90.33449085 77.43790984 -93.41821289 76.25585938 C-95.31956716 75.53170943 -97.23565173 74.84658203 -99.15234375 74.1640625 C-108.34276264 70.87427603 -117.02342294 66.95874808 -125.66162109 62.41699219 C-127.23013014 61.59491883 -128.80963412 60.79389892 -130.390625 59.99609375 C-140.43136277 54.79196319 -152.10099836 48.0986637 -158.43359375 38.48828125 C-159.04460937 37.63943359 -159.04460937 37.63943359 -159.66796875 36.7734375 C-164.1499265 29.5132799 -163.44336617 20.85310397 -161.5859375 12.82421875 C-158.97545488 4.7007508 -155.22026494 -1.29972163 -149.43359375 -7.51171875 C-148.63501953 -8.44564453 -148.63501953 -8.44564453 -147.8203125 -9.3984375 C-109.49870769 -51.71385721 -39.23958197 -25.04252615 0 0 Z " fill="#000000" transform="translate(426.43359375,41.51171875)"/>
<path d="" fill="#000000" transform="translate(0,0)"/>
</svg>
